<svg width="39" height="40" viewBox="0 0 39 40" fill="none" xmlns="http://www.w3.org/2000/svg">
<g id="Group">
<path id="Vector" d="M5.471 39.2187C3.57725 38.0625 2.43975 36.1687 2.48975 34.0875C2.48975 34.0375 2.48975 33.9875 2.496 33.9312C2.0835 33.8187 1.6585 33.7562 1.21475 33.725L0.583496 33.6875L0.627246 34.2312C0.833496 36.7062 2.82725 38.6625 5.471 39.2187ZM8.821 39.2187C11.4647 38.6625 13.4585 36.7062 13.6647 34.2312L13.7085 33.6875L13.0772 33.725C12.6335 33.7562 12.2022 33.8187 11.7897 33.9312C11.8022 33.9875 11.8022 34.0375 11.8022 34.0937C11.8522 36.1687 10.7147 38.0625 8.821 39.2187Z" fill="white"/>
<path id="Vector_2" d="M5.6335 38.5812C4.97128 37.6103 4.59255 36.4741 4.53975 35.3C4.50225 34.3937 4.6585 33.4937 4.996 32.6562C4.7335 32.4937 4.4585 32.3562 4.16475 32.2375L3.58975 32.0062L3.4085 32.525C3.221 33.0562 3.121 33.5812 3.11475 34.1062C3.071 35.8625 4.0085 37.525 5.6335 38.5812ZM8.6585 38.5812C10.2835 37.525 11.221 35.8625 11.1772 34.1062C11.171 33.5812 11.071 33.0562 10.8835 32.525L10.7022 32.0062L10.1272 32.2375C9.8335 32.3562 9.5585 32.4937 9.296 32.6562C9.6335 33.4937 9.78975 34.3937 9.75225 35.3C9.70225 36.475 9.321 37.6 8.6585 38.5812Z" fill="white"/>
<path id="Vector_3" d="M7.14614 39.375C9.62739 37.125 9.80864 33.525 7.55864 31.075L7.14614 30.625L6.73364 31.075C4.48364 33.525 4.66489 37.1187 7.14614 39.375ZM11.9461 28.75H15.8961C15.7461 28.525 15.6524 28.2562 15.6524 27.9625C15.6524 27.3062 16.1274 26.7312 16.7774 26.5875L21.9586 25.4562L22.0899 26.0687L16.9149 27.2C16.5399 27.2812 16.2774 27.5937 16.2774 27.9625C16.2774 28.4 16.6461 28.75 17.0899 28.75H26.7211C27.3024 28.75 27.7711 28.2937 27.7711 27.725C27.7711 27.4125 27.6274 27.125 27.3774 26.925L25.2211 25.2375C24.7289 24.8511 24.3259 24.3628 24.0399 23.8062L23.4586 22.6625C20.7198 23.0122 17.9475 23.0122 15.2086 22.6625L14.6211 23.8062C14.3394 24.3639 13.9382 24.8526 13.4461 25.2375L11.2899 26.925C11.0399 27.125 10.8961 27.4125 10.8961 27.725C10.8961 28.2937 11.3649 28.75 11.9461 28.75ZM23.4211 20.1375C22.1711 20.3375 20.9086 20.4437 19.6461 20.4625V22.2937C21.4274 22.275 23.2086 22.1187 24.9836 21.8C25.8149 21.65 26.4274 20.9437 26.4274 20.1125C26.4274 19.95 26.4024 19.7937 26.3586 19.6375L25.4399 16.5C25.2237 15.7588 24.8214 15.0853 24.2711 14.5437C23.5859 13.8746 22.7105 13.4336 21.7649 13.2812C20.9586 13.15 20.1461 13.0875 19.3336 13.0875C18.5211 13.0875 17.7086 13.15 16.9024 13.2812C15.9461 13.4375 15.0836 13.875 14.3961 14.5437C13.8461 15.0875 13.4399 15.7625 13.2274 16.5L12.3086 19.6375C12.2649 19.7937 12.2399 19.95 12.2399 20.1125C12.2399 20.9437 12.8524 21.65 13.6836 21.8C15.4586 22.1187 17.2399 22.275 19.0211 22.2937V20.4625C17.7586 20.4437 16.4961 20.3375 15.2461 20.1375C15.1649 20.1187 15.0899 20.075 15.0399 20.0062C14.9899 19.9375 14.9711 19.8562 14.9836 19.775L15.5461 16.475L16.1649 16.5812L15.6586 19.5687C18.0961 19.9312 20.5711 19.9312 23.0086 19.5687L22.5024 16.5812L23.1211 16.475L23.6774 19.775C23.6961 19.8562 23.6774 19.9375 23.6274 20.0062C23.5774 20.075 23.5024 20.1187 23.4211 20.1375Z" fill="white"/>
<path id="Vector_4" d="M19.3334 11.5625C20.8211 11.5625 22.0271 10.3817 22.0271 8.92501C22.0271 7.46835 20.8211 6.28751 19.3334 6.28751C17.8457 6.28751 16.6396 7.46835 16.6396 8.92501C16.6396 10.3817 17.8457 11.5625 19.3334 11.5625Z" fill="white"/>
<path id="Vector_5" d="M18.4835 1.92499L18.3335 0.681244C17.6835 0.762494 17.046 0.918744 16.4335 1.15624L16.8772 2.32499C17.396 2.12499 17.9335 1.99374 18.4835 1.92499ZM15.4147 3.09999L14.7022 2.07499C14.1647 2.44999 13.671 2.88749 13.2397 3.37499L14.1772 4.19999C14.546 3.78124 14.9585 3.41249 15.4147 3.09999ZM12.6585 10.4062C12.5272 9.86874 12.4585 9.31874 12.4585 8.76249H11.2085C11.2085 9.41874 11.2897 10.075 11.446 10.7062L12.6585 10.4062ZM13.2335 5.56874L12.1272 4.98749C11.821 5.56874 11.5897 6.18749 11.4335 6.81874L12.646 7.11249C12.7772 6.57499 12.971 6.05624 13.2272 5.56249L13.2335 5.56874ZM22.1897 1.14374C21.5772 0.912494 20.9335 0.756244 20.2835 0.681244L20.1397 1.92499C20.6897 1.98749 21.2335 2.11874 21.7522 2.31249L22.1897 1.14374ZM25.396 3.33749C24.9585 2.84999 24.4647 2.41249 23.9272 2.04374L23.221 3.07499C23.6772 3.38749 24.096 3.75624 24.4647 4.16874L25.396 3.33749ZM25.421 11.9437C25.1647 12.4312 24.846 12.8937 24.4772 13.3062L25.4147 14.1375C25.8522 13.6437 26.221 13.1062 26.5272 12.525L25.421 11.9437ZM27.2147 6.77499C27.0585 6.14374 26.821 5.52499 26.5147 4.94374L25.4085 5.53124C25.671 6.01874 25.871 6.54374 26.0022 7.07499L27.2147 6.77499ZM27.4585 8.74999V8.71874L26.2085 8.74999C26.2085 9.30624 26.1397 9.85624 26.0085 10.3937L27.221 10.6937C27.3772 10.0625 27.4522 9.40624 27.4522 8.74999H27.4585ZM14.196 13.3187C13.8272 12.9062 13.5085 12.4437 13.2522 11.9562L12.146 12.5375C12.4522 13.1125 12.8272 13.6562 13.2647 14.1437L14.196 13.3125V13.3187ZM25.5897 33.725L24.9585 33.6875L25.0022 34.2312C25.2085 36.7062 27.2022 38.6625 29.846 39.2187C27.9522 38.0625 26.8147 36.1687 26.8647 34.0875C26.8647 34.0375 26.8647 33.9875 26.871 33.9312C26.4585 33.8187 26.0335 33.7562 25.5897 33.725ZM36.1647 33.9312C36.1772 33.9875 36.1772 34.0375 36.1772 34.0937C36.2272 36.1687 35.0897 38.0625 33.196 39.2187C35.8397 38.6625 37.8335 36.7062 38.0397 34.2312L38.0835 33.6875L37.4522 33.725C37.0085 33.7562 36.5772 33.8187 36.1647 33.9312Z" fill="white"/>
<path id="Vector_6" d="M30.0085 38.5812C29.3463 37.6103 28.9676 36.4741 28.9147 35.3C28.8772 34.3937 29.0335 33.4937 29.371 32.6562C29.1085 32.4937 28.8335 32.3562 28.5397 32.2375L27.9647 32.0062L27.7835 32.525C27.596 33.0562 27.496 33.5812 27.4897 34.1062C27.446 35.8625 28.3835 37.525 30.0085 38.5812ZM33.0335 38.5812C34.6585 37.525 35.596 35.8625 35.5522 34.1062C35.546 33.5812 35.446 33.0562 35.2585 32.525L35.0772 32.0062L34.5022 32.2375C34.2085 32.3562 33.9335 32.4937 33.671 32.6562C34.0085 33.4937 34.1647 34.3937 34.1272 35.3C34.0772 36.475 33.696 37.6 33.0335 38.5812Z" fill="white"/>
<path id="Vector_7" d="M31.5211 39.375C34.0024 37.125 34.1836 33.525 31.9336 31.075L31.5211 30.625L31.1086 31.075C28.8586 33.525 29.0399 37.1188 31.5211 39.375Z" fill="white"/>
</g>
</svg>
